<svg id="Capa_1" data-name="Capa 1" xmlns="http://www.w3.org/2000/svg" viewBox="0 0 2210.65 2407.26"><defs><style>.cls-1{fill:#fff;}</style></defs><title>andes</title><path class="cls-1" d="M1725.56,861.26a250.63,250.63,0,0,1-87.62-117.06,125.09,125.09,0,0,0-162.35,119.32c0,0.37,0,.74,0,1.11a250.55,250.55,0,0,1,85.66,117.57,125.07,125.07,0,0,0,164.33-118.68C1725.59,862.77,1725.57,862,1725.56,861.26Z" transform="translate(-453.45 -215.21)"/><circle class="cls-1" cx="599.85" cy="1046.37" r="250"/><path class="cls-1" d="M1886.22,906.53c114.42,0,210.88-76.86,240.57-181.77-133.7-5-240.57-114.89-240.57-249.81a250.18,250.18,0,0,1,9.43-68.23c-3.13-.12-6.27-0.19-9.43-0.19-138.07,0-250,111.93-250,250S1748.15,906.53,1886.22,906.53Z" transform="translate(-453.45 -215.21)"/><circle class="cls-1" cx="1694.5" cy="250" r="250"/><path class="cls-1" d="M1315.26,821.56c-114.42,0-210.88,76.86-240.57,181.77,133.7,5,240.57,114.89,240.57,249.81a250.18,250.18,0,0,1-9.43,68.23c3.13,0.12,6.27.19,9.43,0.19,138.07,0,250-111.93,250-250S1453.33,821.56,1315.26,821.56Z" transform="translate(-453.45 -215.21)"/><path class="cls-1" d="M1475.59,1289.25" transform="translate(-453.45 -215.21)"/><path class="cls-1" d="M1990.42,1467.29" transform="translate(-453.45 -215.21)"/><line class="cls-1" x1="776.23" y1="1011.29" x2="812.86" y2="1012.25"/><path class="cls-1" d="M1580.26,1076.56c0,3-.07,6-0.18,9,12.21,26,22.44,46.63,23.84,48.89-0.54.74-1.78,10.86-10.84-2.86a184.93,184.93,0,0,0-15.32-19.66,248.65,248.65,0,0,1-45.44,111.88c85.29,85.28,208.7,213.91,263.76,293.63-12.72-44-39.41-111.4-71.26-185.61-9-21.06,3.52,4.84-39.64-86.33-14.11-29.8-34.22-70.27-55.72-113.14-17.93-35.76-36.92-73.14-54.52-107.26A251,251,0,0,1,1580.26,1076.56Z" transform="translate(-453.45 -215.21)"/><path class="cls-1" d="M1399.7,821.56" transform="translate(-453.45 -215.21)"/><path class="cls-1" d="M1357.7,805" transform="translate(-453.45 -215.21)"/><path class="cls-1" d="M1108.71,906.53" transform="translate(-453.45 -215.21)"/><path class="cls-1" d="M1264.34,815.45a0.06,0.06,0,0,0,.06,0,251.78,251.78,0,0,1,100.76,1,0.06,0.06,0,0,0,0-.11c-142.1-101-259.36-108.87-315.92-108.92a0.06,0.06,0,0,0,0,.12C1157.67,730.49,1218.85,761.8,1264.34,815.45Z" transform="translate(-453.45 -215.21)"/><path class="cls-1" d="M1219.09,829.51" transform="translate(-453.45 -215.21)"/><path class="cls-1" d="M1246,821c-23-10-44-24-67-34-11-4-23-9-34-13-108-47-219-82-332-111,37,14,74,26,110,41,3,1,5,1,8,2,14,5,27,11,41,16,9,4,19,8,28,12-33-7-65-12-99-17-7-1-15-1-22-2-6-1-11-2-17-3-68-7-135-13-202-8,128,23,257,47,380,94a510.25,510.25,0,0,1,72,32c14,8,27,14,41,23a35.92,35.92,0,0,0,10,7,35.92,35.92,0,0,1,10-7l3-3c23-13,45-23,70-29h0Z" transform="translate(-453.45 -215.21)"/><path class="cls-1" d="M875.48,2125H809.42l-45.71-111.86H562.09L516.38,2125H453.45l169.69-401.33h82.65ZM744.62,1967.31l-81.71-197-82,197H744.62Z" transform="translate(-453.45 -215.21)"/><path class="cls-1" d="M1301.9,2125h-76.7l-221-359v359H946.24V1723.66h96.12L1244,2051.41V1723.66h57.92V2125Z" transform="translate(-453.45 -215.21)"/><path class="cls-1" d="M1819.73,1924.73q0,54.72-27.71,99.19a191.65,191.65,0,0,1-73.73,69q-31.94,17-71.23,24.53T1543.59,2125H1425.88V1723.66h116.47q68.25,0,108.48,8.49t68.09,23.31q47.59,25.61,74.2,68.19T1819.73,1924.73Zm-64.81-.81q0-47.16-19.1-79.51t-57-50.94a213.93,213.93,0,0,0-58.55-18.73q-31-5.26-74.2-5.26h-58.23v309.69h58.23q44.77,0,78.11-5.66a192.47,192.47,0,0,0,61.21-21q34.75-19.14,52.13-50.4T1754.92,1923.92Z" transform="translate(-453.45 -215.21)"/><path class="cls-1" d="M2227,2125H1919.92V1723.66H2227v47.44H1981.91v110H2227v47.44H1981.91v149.05H2227V2125Z" transform="translate(-453.45 -215.21)"/><path class="cls-1" d="M2664.11,2010.44q0,23.45-12.68,46.36a114.66,114.66,0,0,1-35.54,38.81q-25.05,17.25-58.39,27t-80.31,9.7q-50.41,0-90.64-8.09a512.39,512.39,0,0,1-81.87-24v-66.84h4.38q35.38,25.34,81.71,39.08t87,13.75q57.6,0,89.7-18.6t32.09-49.59q0-26.68-15.18-39.35T2538.25,1959q-23.48-5.39-50.87-8.89t-58.08-8.89q-62-11.32-91.89-38.68t-29.9-71.29q0-50.4,49.47-82.61t125.54-32.21q49.15,0,90.17,8.09t72.63,19.95v63.07h-4.38q-26.61-19.41-70-32.21a312,312,0,0,0-88.76-12.8q-49.78,0-80,17.79T2372,1826.08q0,25.07,15,39.35t52.91,21.83q20,3.78,57,9.16t62.62,11.05q52,11.86,78.27,35.85T2664.11,2010.44Z" transform="translate(-453.45 -215.21)"/><path class="cls-1" d="M666.94,2415.18l38.71-122.41h14.2L761,2415.18h-15.2l-11.67-37.07H691.85l-10.91,37.07h-14Zm28.8-50.26h34.19L719.49,2331q-4.84-15.61-7.09-25.38a180,180,0,0,1-5.5,23.38Z" transform="translate(-453.45 -215.21)"/><path class="cls-1" d="M765,2388.63l12.27-2.34q1.08,9.39,5.91,14t12.83,4.57q8,0,12.37-4a13,13,0,0,0,4.37-10.06,9.78,9.78,0,0,0-3.76-8.18q-2.59-2-12.52-5-14.36-4.43-19.2-7.51a21.09,21.09,0,0,1-7.51-8.27,25.29,25.29,0,0,1-2.67-11.77q0-11.35,7.26-18.45t20.12-7.1a32.76,32.76,0,0,1,14.24,2.92,22.53,22.53,0,0,1,9.39,7.85q3.26,4.93,4.51,14.11l-12,2q-1.67-14.53-15.78-14.53-8,0-11.94,3.2a10.1,10.1,0,0,0-3.92,8.19,9.15,9.15,0,0,0,3.76,7.73q2.26,1.66,13.38,5.32,15.3,4.86,19.79,7.74a19.58,19.58,0,0,1,7,7.86,26.13,26.13,0,0,1,2.5,11.83q0,12.71-8.06,20.58t-22,7.86Q769.13,2417.18,765,2388.63Z" transform="translate(-453.45 -215.21)"/><path class="cls-1" d="M835.18,2370.84q0-23,9.64-34.65t24.42-11.69q14.53,0,24.3,11.69t9.77,33.73q0,23.88-9.6,35.57t-24.46,11.69q-14.61,0-24.34-11.73T835.18,2370.84Zm12.61,0q0,17.22,6.26,25.62t15.53,8.4q8.68,0,14.9-8.49t6.22-25.54q0-17.14-6.26-25.54t-15.53-8.4q-8.77,0-14.95,8.44T847.79,2370.8Z" transform="translate(-453.45 -215.21)"/><path class="cls-1" d="M965.43,2382.7l12.11,1.92q-2.09,15.86-10.48,24.21a27.57,27.57,0,0,1-20.16,8.35q-14.28,0-23.5-11.73t-9.23-34.69q0-23.13,9.31-34.69t23.92-11.56a27.22,27.22,0,0,1,19,7q7.72,7,9.89,21l-11.94,2.17q-1.75-9-6.1-13.42a14.07,14.07,0,0,0-10.44-4.45q-9.1,0-15.07,8.06t-6,25.59q0,18.12,5.72,26.22t14.65,8.1a15.72,15.72,0,0,0,12-5.39Q964.1,2394.05,965.43,2382.7Z" transform="translate(-453.45 -215.21)"/><path class="cls-1" d="M988,2310.06v-17.28h12.27v17.28H988Zm0,105.12v-88.67h12.27v88.67H988Z" transform="translate(-453.45 -215.21)"/><path class="cls-1" d="M1066.46,2404.24a46,46,0,0,1-12.86,9.69,31.3,31.3,0,0,1-13.86,3.26q-11.36,0-18.12-6.85t-6.76-18.45a28.39,28.39,0,0,1,3.17-13.61,23.64,23.64,0,0,1,8.68-9.27q5.51-3.34,16.7-4.93,15-2.21,22-5.26l0.08-3.84q0-9.1-3.26-12.77-4.59-5.34-14.11-5.34-8.6,0-12.86,3.57t-6.26,13.38l-12.11-2q2.59-14.28,10.48-20.79t22.59-6.51q11.44,0,18,4.3t8.22,10.65q1.71,6.35,1.71,18.54v20q0,21,.79,26.51a39.51,39.51,0,0,0,3.13,10.65H1069A37.17,37.17,0,0,1,1066.46,2404.24Zm-1-33.56q-6.76,3.34-20.12,5.68-7.77,1.34-10.85,3a12,12,0,0,0-4.8,4.84,14.82,14.82,0,0,0-1.71,7.22,13.46,13.46,0,0,0,3.92,10.14q3.92,3.8,10.85,3.8a21.87,21.87,0,0,0,12-3.42,21.34,21.34,0,0,0,8.06-9.14q2.67-5.72,2.67-16.66v-5.51Z" transform="translate(-453.45 -215.21)"/><path class="cls-1" d="M1144.7,2382.7l12.11,1.92q-2.09,15.86-10.48,24.21a27.57,27.57,0,0,1-20.16,8.35q-14.28,0-23.5-11.73t-9.23-34.69q0-23.13,9.31-34.69t23.92-11.56a27.22,27.22,0,0,1,19,7q7.72,7,9.89,21l-11.94,2.17q-1.75-9-6.1-13.42a14.07,14.07,0,0,0-10.44-4.45q-9.1,0-15.07,8.06t-6,25.59q0,18.12,5.72,26.22t14.65,8.1a15.72,15.72,0,0,0,12-5.39Q1143.36,2394.05,1144.7,2382.7Z" transform="translate(-453.45 -215.21)"/><path class="cls-1" d="M1167.24,2310.06v-17.28h12.27v17.28h-12.27Zm0,105.12v-88.67h12.27v88.67h-12.27Z" transform="translate(-453.45 -215.21)"/><path class="cls-1" d="M1193.71,2370.84q0-23,9.64-34.65t24.42-11.69q14.53,0,24.3,11.69t9.77,33.73q0,23.88-9.6,35.57t-24.46,11.69q-14.61,0-24.34-11.73T1193.71,2370.84Zm12.61,0q0,17.22,6.26,25.62t15.53,8.4q8.68,0,14.9-8.49t6.22-25.54q0-17.14-6.26-25.54t-15.53-8.4q-8.77,0-14.95,8.44T1206.32,2370.8Zm12.36-55.32,9.1-23.38h16.11l-15,23.38h-10.19Z" transform="translate(-453.45 -215.21)"/><path class="cls-1" d="M1276.37,2415.18v-88.67h11.1V2339a28.7,28.7,0,0,1,9.79-10.92,24.59,24.59,0,0,1,13.29-3.61,25.38,25.38,0,0,1,10.79,2.3,22.21,22.21,0,0,1,8,6,24.52,24.52,0,0,1,4.54,9.64q1.5,5.93,1.5,18.2v54.52h-12.27v-54q0-9.78-1.67-14.29a14.25,14.25,0,0,0-5.22-7,14.06,14.06,0,0,0-8.22-2.46,17.11,17.11,0,0,0-14.11,6.6q-5.26,6.6-5.26,22.65v48.48h-12.27Z" transform="translate(-453.45 -215.21)"/><path class="cls-1" d="M1394.69,2415.18V2292.77h13.61l52.77,96.29v-96.29h12.69v122.41h-13.61l-52.69-96.31v96.31h-12.77Z" transform="translate(-453.45 -215.21)"/><path class="cls-1" d="M1541.89,2404.24a46,46,0,0,1-12.86,9.69,31.3,31.3,0,0,1-13.86,3.26q-11.36,0-18.12-6.85t-6.76-18.45a28.39,28.39,0,0,1,3.17-13.61,23.64,23.64,0,0,1,8.68-9.27q5.51-3.34,16.7-4.93,15-2.21,22-5.26L1541,2355q0-9.1-3.26-12.77-4.59-5.34-14.11-5.34-8.6,0-12.86,3.57t-6.26,13.38l-12.11-2q2.59-14.28,10.48-20.79t22.58-6.51q11.44,0,18,4.3t8.22,10.65q1.71,6.35,1.71,18.54v20q0,21,.79,26.51a39.56,39.56,0,0,0,3.13,10.65H1544.4A37.16,37.16,0,0,1,1541.89,2404.24Zm-1-33.56q-6.76,3.34-20.12,5.68-7.77,1.34-10.85,3a12,12,0,0,0-4.8,4.84,14.82,14.82,0,0,0-1.71,7.22,13.46,13.46,0,0,0,3.92,10.14q3.92,3.8,10.85,3.8a21.87,21.87,0,0,0,12-3.42,21.34,21.34,0,0,0,8.06-9.14q2.67-5.72,2.67-16.66v-5.51Z" transform="translate(-453.45 -215.21)"/><path class="cls-1" d="M1620.13,2382.7l12.11,1.92q-2.09,15.86-10.48,24.21a27.57,27.57,0,0,1-20.17,8.35q-14.28,0-23.5-11.73t-9.23-34.69q0-23.13,9.31-34.69t23.92-11.56a27.22,27.22,0,0,1,19,7q7.72,7,9.89,21l-11.94,2.17q-1.75-9-6.09-13.42a14.07,14.07,0,0,0-10.44-4.45q-9.1,0-15.07,8.06t-6,25.59q0,18.12,5.72,26.22t14.65,8.1a15.72,15.72,0,0,0,12-5.39Q1618.79,2394.05,1620.13,2382.7Z" transform="translate(-453.45 -215.21)"/><path class="cls-1" d="M1642.67,2310.06v-17.28h12.27v17.28h-12.27Zm0,105.12v-88.67h12.27v88.67h-12.27Z" transform="translate(-453.45 -215.21)"/><path class="cls-1" d="M1669.14,2370.84q0-23,9.64-34.65t24.42-11.69q14.53,0,24.3,11.69t9.77,33.73q0,23.88-9.6,35.57t-24.46,11.69q-14.61,0-24.34-11.73T1669.14,2370.84Zm12.61,0q0,17.22,6.26,25.62t15.53,8.4q8.68,0,14.9-8.49t6.22-25.54q0-17.14-6.26-25.54t-15.53-8.4q-8.77,0-14.95,8.44T1681.75,2370.8Z" transform="translate(-453.45 -215.21)"/><path class="cls-1" d="M1751.8,2415.18v-88.67h11.1V2339a28.7,28.7,0,0,1,9.79-10.92,24.59,24.59,0,0,1,13.29-3.61,25.38,25.38,0,0,1,10.79,2.3,22.22,22.22,0,0,1,8,6,24.53,24.53,0,0,1,4.54,9.64q1.5,5.93,1.5,18.2v54.52h-12.27v-54q0-9.78-1.67-14.29a14.26,14.26,0,0,0-5.22-7,14.06,14.06,0,0,0-8.22-2.46,17.12,17.12,0,0,0-14.11,6.6q-5.26,6.6-5.26,22.65v48.48H1751.8Z" transform="translate(-453.45 -215.21)"/><path class="cls-1" d="M1877.13,2404.24a46,46,0,0,1-12.86,9.69,31.3,31.3,0,0,1-13.86,3.26q-11.36,0-18.12-6.85t-6.76-18.45a28.39,28.39,0,0,1,3.17-13.61,23.64,23.64,0,0,1,8.68-9.27q5.51-3.34,16.7-4.93,15-2.21,22-5.26l0.08-3.84q0-9.1-3.26-12.77-4.59-5.34-14.11-5.34-8.6,0-12.86,3.57t-6.26,13.38l-12.11-2q2.59-14.28,10.48-20.79t22.59-6.51q11.44,0,18,4.3t8.22,10.65q1.71,6.35,1.71,18.54v20q0,21,.79,26.51a39.49,39.49,0,0,0,3.13,10.65h-12.86A37.17,37.17,0,0,1,1877.13,2404.24Zm-1-33.56q-6.76,3.34-20.12,5.68-7.77,1.34-10.86,3a12,12,0,0,0-4.8,4.84,14.83,14.83,0,0,0-1.71,7.22,13.46,13.46,0,0,0,3.92,10.14q3.92,3.8,10.85,3.8a21.87,21.87,0,0,0,12-3.42,21.34,21.34,0,0,0,8.06-9.14q2.67-5.72,2.67-16.66v-5.51Z" transform="translate(-453.45 -215.21)"/><path class="cls-1" d="M1907.35,2415.18V2292.77h12.27v122.41h-12.27Z" transform="translate(-453.45 -215.21)"/><path class="cls-1" d="M1977.91,2449.16V2326.51h11.36V2338q4.17-7.18,9.25-10.35a21.58,21.58,0,0,1,11.67-3.17,25.53,25.53,0,0,1,15.5,5.09q6.92,5.09,11.13,15.49t4.21,25q0,22.63-9.48,34.86t-22.25,12.23a20.43,20.43,0,0,1-10.6-2.92,26.69,26.69,0,0,1-8.52-8.27v43.17h-12.27Zm11.2-77.82q0,17.2,5.75,25.34t13.91,8.14q7.83,0,13.74-8.43t5.91-26.05q0-17.37-5.75-25.72t-14-8.35q-7.41,0-13.49,9T1989.11,2371.34Z" transform="translate(-453.45 -215.21)"/><path class="cls-1" d="M2103.24,2404.24a46,46,0,0,1-12.86,9.69,31.3,31.3,0,0,1-13.86,3.26q-11.36,0-18.12-6.85t-6.76-18.45a28.39,28.39,0,0,1,3.17-13.61,23.64,23.64,0,0,1,8.68-9.27q5.51-3.34,16.7-4.93,15-2.21,22-5.26l0.08-3.84q0-9.1-3.26-12.77-4.59-5.34-14.11-5.34-8.6,0-12.86,3.57t-6.26,13.38l-12.11-2q2.59-14.28,10.48-20.79t22.59-6.51q11.44,0,18,4.3t8.22,10.65q1.71,6.35,1.71,18.54v20q0,21,.79,26.51a39.49,39.49,0,0,0,3.13,10.65h-12.86A37.17,37.17,0,0,1,2103.24,2404.24Zm-1-33.56q-6.76,3.34-20.12,5.68-7.77,1.34-10.86,3a12,12,0,0,0-4.8,4.84,14.83,14.83,0,0,0-1.71,7.22,13.46,13.46,0,0,0,3.92,10.14q3.92,3.8,10.85,3.8a21.87,21.87,0,0,0,12-3.42,21.34,21.34,0,0,0,8.06-9.14q2.67-5.72,2.67-16.66v-5.51Z" transform="translate(-453.45 -215.21)"/><path class="cls-1" d="M2133.88,2415.18v-88.67H2145v13.44q4.26-9.35,7.81-12.4a11.92,11.92,0,0,1,8-3q6.18,0,12.61,4.84l-4.17,13.94a15.51,15.51,0,0,0-8.93-3.26,10.86,10.86,0,0,0-7.18,2.76,14.81,14.81,0,0,0-4.59,7.68,69.44,69.44,0,0,0-2.34,18.29v46.42h-12.27Z" transform="translate(-453.45 -215.21)"/><path class="cls-1" d="M2227.89,2404.24a46,46,0,0,1-12.86,9.69,31.3,31.3,0,0,1-13.86,3.26q-11.36,0-18.12-6.85t-6.76-18.45a28.4,28.4,0,0,1,3.17-13.61,23.64,23.64,0,0,1,8.68-9.27q5.51-3.34,16.7-4.93,15-2.21,22-5.26L2227,2355q0-9.1-3.26-12.77-4.59-5.34-14.11-5.34-8.6,0-12.86,3.57t-6.26,13.38l-12.11-2q2.59-14.28,10.48-20.79t22.58-6.51q11.44,0,18,4.3t8.22,10.65q1.71,6.35,1.71,18.54v20q0,21,.79,26.51a39.56,39.56,0,0,0,3.13,10.65H2230.4A37.16,37.16,0,0,1,2227.89,2404.24Zm-1-33.56q-6.76,3.34-20.12,5.68-7.77,1.34-10.85,3a12,12,0,0,0-4.8,4.84,14.82,14.82,0,0,0-1.71,7.22,13.46,13.46,0,0,0,3.92,10.14q3.92,3.8,10.85,3.8a21.87,21.87,0,0,0,12-3.42,21.34,21.34,0,0,0,8.06-9.14q2.67-5.72,2.67-16.66v-5.51Z" transform="translate(-453.45 -215.21)"/><path class="cls-1" d="M2347.21,2386.62l12.69,1.92q-3.17,14.19-11.48,21.42t-20.58,7.22q-15.45,0-25-11.73t-9.56-33.86q0-23,9.64-35t24.42-12.07q14.11,0,23.55,11.86t9.44,34.32l-0.08,4H2306q0.75,14.95,6.93,22.54t15,7.6Q2341.78,2404.83,2347.21,2386.62Zm-40.5-24.3h40.58q-0.84-11.52-4.93-17.2-5.93-8.27-15.11-8.27-8.27,0-14.11,6.89T2306.71,2362.33Z" transform="translate(-453.45 -215.21)"/><path class="cls-1" d="M2375.1,2415.18V2292.77h12.27v122.41H2375.1Z" transform="translate(-453.45 -215.21)"/><path class="cls-1" d="M1012.94,2620.38V2498h34.65q12.86,0,19.54,2.25a33.17,33.17,0,0,1,15.2,10.69,55.73,55.73,0,0,1,10,19.58q3.59,11.82,3.59,28,0,20.79-6.1,35.28t-15.66,20.54q-9.56,6.06-25,6.05h-36.24Zm13.28-14.45h21.38q12.94,0,19.62-4.22t10.27-13.57q4.76-12.44,4.76-29.81,0-18.62-5.05-29.27t-13-14.24q-5.34-2.42-16.95-2.42h-21v93.52Z" transform="translate(-453.45 -215.21)"/><path class="cls-1" d="M1162.4,2591.82l12.69,1.92q-3.17,14.19-11.48,21.42t-20.58,7.22q-15.45,0-25-11.73t-9.56-33.86q0-23,9.64-35t24.42-12.07q14.11,0,23.55,11.86t9.44,34.32l-0.08,4h-54.27q0.75,14.95,6.93,22.54t15,7.6Q1157,2610,1162.4,2591.82Zm-40.5-24.3h40.58q-0.84-11.52-4.93-17.2-5.93-8.27-15.11-8.27-8.27,0-14.11,6.89T1121.91,2567.53Z" transform="translate(-453.45 -215.21)"/><path class="cls-1" d="M1185.95,2593.83l12.27-2.34q1.08,9.39,5.91,14T1217,2610q8,0,12.37-4a13,13,0,0,0,4.37-10.06,9.78,9.78,0,0,0-3.76-8.18q-2.59-2-12.52-5-14.36-4.43-19.2-7.51a21.09,21.09,0,0,1-7.51-8.27,25.29,25.29,0,0,1-2.67-11.77q0-11.35,7.26-18.45t20.12-7.1a32.76,32.76,0,0,1,14.24,2.92,22.53,22.53,0,0,1,9.39,7.85q3.26,4.93,4.51,14.11l-12,2q-1.67-14.53-15.78-14.53-8,0-11.94,3.2a10.1,10.1,0,0,0-3.92,8.19,9.15,9.15,0,0,0,3.76,7.73q2.26,1.66,13.38,5.32,15.3,4.86,19.79,7.74a19.58,19.58,0,0,1,7,7.86,26.13,26.13,0,0,1,2.5,11.83q0,12.71-8.06,20.58t-22,7.86Q1190.12,2622.38,1185.95,2593.83Z" transform="translate(-453.45 -215.21)"/><path class="cls-1" d="M1308.19,2609.44a46,46,0,0,1-12.86,9.69,31.3,31.3,0,0,1-13.86,3.26q-11.36,0-18.12-6.85t-6.76-18.45a28.39,28.39,0,0,1,3.17-13.61,23.64,23.64,0,0,1,8.68-9.27q5.51-3.34,16.7-4.93,15-2.21,22-5.26l0.08-3.84q0-9.1-3.26-12.77-4.59-5.34-14.11-5.34-8.6,0-12.86,3.57t-6.26,13.38l-12.11-2q2.59-14.28,10.48-20.79t22.59-6.51q11.44,0,18,4.3t8.22,10.65q1.71,6.35,1.71,18.54v20q0,21,.79,26.51a39.51,39.51,0,0,0,3.13,10.65h-12.86A37.17,37.17,0,0,1,1308.19,2609.44Zm-1-33.56q-6.76,3.34-20.12,5.68-7.77,1.34-10.85,3a12,12,0,0,0-4.8,4.84,14.82,14.82,0,0,0-1.71,7.22,13.46,13.46,0,0,0,3.92,10.14q3.92,3.8,10.85,3.8a21.87,21.87,0,0,0,12-3.42,21.34,21.34,0,0,0,8.06-9.14q2.67-5.72,2.67-16.66v-5.51Z" transform="translate(-453.45 -215.21)"/><path class="cls-1" d="M1338.83,2620.38v-88.67h11.1v13.44q4.26-9.35,7.81-12.4a11.92,11.92,0,0,1,8-3q6.18,0,12.61,4.84l-4.17,13.94a15.51,15.51,0,0,0-8.93-3.26A10.86,10.86,0,0,0,1358,2548a14.8,14.8,0,0,0-4.59,7.68,69.42,69.42,0,0,0-2.34,18.29v46.42h-12.27Z" transform="translate(-453.45 -215.21)"/><path class="cls-1" d="M1385.5,2620.38v-88.67h11.1v13.44q4.26-9.35,7.81-12.4a11.92,11.92,0,0,1,8-3q6.18,0,12.61,4.84l-4.17,13.94a15.51,15.51,0,0,0-8.93-3.26,10.86,10.86,0,0,0-7.18,2.76,14.8,14.8,0,0,0-4.59,7.68,69.42,69.42,0,0,0-2.34,18.29v46.42H1385.5Z" transform="translate(-453.45 -215.21)"/><path class="cls-1" d="M1427.5,2576q0-23,9.64-34.65t24.42-11.69q14.53,0,24.3,11.69t9.77,33.73q0,23.88-9.6,35.57t-24.46,11.69q-14.61,0-24.34-11.73T1427.5,2576Zm12.61,0q0,17.22,6.26,25.62t15.53,8.4q8.68,0,14.9-8.49T1483,2576q0-17.14-6.26-25.54t-15.53-8.4q-8.77,0-14.95,8.44T1440.11,2576Z" transform="translate(-453.45 -215.21)"/><path class="cls-1" d="M1509.75,2620.38V2498H1522v122.41h-12.27Z" transform="translate(-453.45 -215.21)"/><path class="cls-1" d="M1540.89,2620.38V2498h12.27v122.41h-12.27Z" transform="translate(-453.45 -215.21)"/><path class="cls-1" d="M1567.78,2576q0-23,9.64-34.65t24.42-11.69q14.53,0,24.3,11.69t9.77,33.73q0,23.88-9.6,35.57t-24.46,11.69q-14.61,0-24.34-11.73T1567.78,2576Zm12.61,0q0,17.22,6.26,25.62t15.53,8.4q8.68,0,14.9-8.49t6.22-25.54q0-17.14-6.26-25.54t-15.53-8.4q-8.77,0-14.95,8.44T1580.38,2576Z" transform="translate(-453.45 -215.21)"/><path class="cls-1" d="M1686.67,2581l12.52-1.34q1,10.1,4.55,15.74a25.57,25.57,0,0,0,10.14,9.06,31.78,31.78,0,0,0,14.86,3.42q11.85,0,18.41-5.79a19.13,19.13,0,0,0,6.55-15,18.29,18.29,0,0,0-2.38-9.46,17.9,17.9,0,0,0-7.18-6.62q-4.8-2.58-20.75-7.3-14.2-4.21-20.21-8.47a29.43,29.43,0,0,1-9.35-10.81,32.17,32.17,0,0,1-3.34-14.82q0-14.86,9.6-24.3t25.88-9.44a41.38,41.38,0,0,1,19.58,4.43,31.45,31.45,0,0,1,13,12.69,41.76,41.76,0,0,1,5,19.45l-12.77,1.17q-1-11.94-7.14-17.7t-17.24-5.76q-11.27,0-17.2,5.05a16.36,16.36,0,0,0-5.93,13.06q0,7.43,4.34,11.52t19.53,8.28q14.85,4.11,20.86,7.13a33.82,33.82,0,0,1,13.87,12.33q4.68,7.63,4.69,18.22a37.94,37.94,0,0,1-4.93,19.14,33.11,33.11,0,0,1-13.4,13.14q-8.48,4.5-20.42,4.5-18.62,0-29.68-11.19T1686.67,2581Z" transform="translate(-453.45 -215.21)"/><path class="cls-1" d="M1778.27,2576q0-23,9.64-34.65t24.42-11.69q14.53,0,24.3,11.69t9.77,33.73q0,23.88-9.6,35.57t-24.46,11.69q-14.61,0-24.34-11.73T1778.27,2576Zm12.61,0q0,17.22,6.26,25.62t15.53,8.4q8.68,0,14.9-8.49t6.22-25.54q0-17.14-6.26-25.54t-15.53-8.4q-8.77,0-14.95,8.44T1790.88,2576Z" transform="translate(-453.45 -215.21)"/><path class="cls-1" d="M1908.52,2587.9l12.11,1.92q-2.09,15.86-10.48,24.21a27.56,27.56,0,0,1-20.16,8.35q-14.28,0-23.5-11.73t-9.23-34.69q0-23.13,9.31-34.69t23.92-11.56a27.22,27.22,0,0,1,19,7q7.72,7,9.89,21l-11.94,2.17q-1.75-9-6.1-13.42a14.07,14.07,0,0,0-10.44-4.45q-9.1,0-15.07,8.06t-6,25.59q0,18.12,5.72,26.22t14.65,8.1a15.72,15.72,0,0,0,12-5.39Q1907.18,2599.25,1908.52,2587.9Z" transform="translate(-453.45 -215.21)"/><path class="cls-1" d="M1931.07,2515.26V2498h12.27v17.28h-12.27Zm0,105.12v-88.67h12.27v88.67h-12.27Z" transform="translate(-453.45 -215.21)"/><path class="cls-1" d="M2009.55,2609.44a46,46,0,0,1-12.86,9.69,31.3,31.3,0,0,1-13.86,3.26q-11.36,0-18.12-6.85t-6.76-18.45a28.39,28.39,0,0,1,3.17-13.61,23.64,23.64,0,0,1,8.68-9.27q5.51-3.34,16.7-4.93,15-2.21,22-5.26l0.08-3.84q0-9.1-3.26-12.77-4.59-5.34-14.11-5.34-8.6,0-12.86,3.57t-6.26,13.38l-12.11-2q2.59-14.28,10.48-20.79t22.58-6.51q11.44,0,18,4.3t8.22,10.65q1.71,6.35,1.71,18.54v20q0,21,.79,26.51a39.53,39.53,0,0,0,3.13,10.65h-12.86A37.17,37.17,0,0,1,2009.55,2609.44Zm-1-33.56q-6.76,3.34-20.12,5.68-7.76,1.34-10.85,3a12,12,0,0,0-4.8,4.84,14.82,14.82,0,0,0-1.71,7.22,13.46,13.46,0,0,0,3.92,10.14q3.92,3.8,10.85,3.8a21.87,21.87,0,0,0,12-3.42,21.34,21.34,0,0,0,8.06-9.14q2.67-5.72,2.67-16.66v-5.51Z" transform="translate(-453.45 -215.21)"/><path class="cls-1" d="M2039.78,2620.38V2498h12.27v122.41h-12.27Z" transform="translate(-453.45 -215.21)"/></svg>