<?xml version="1.0" standalone="no"?>
<!DOCTYPE svg PUBLIC "-//W3C//DTD SVG 20010904//EN"
 "http://www.w3.org/TR/2001/REC-SVG-20010904/DTD/svg10.dtd">
<svg version="1.0" xmlns="http://www.w3.org/2000/svg"
 width="1169.000000pt" height="726.000000pt" viewBox="0 0 1169.000000 726.000000"
 preserveAspectRatio="xMidYMid meet">

<g transform="translate(0.000000,726.000000) scale(0.100000,-0.100000)"
fill="#000000" stroke="none">
<path d="M6963 6970 c-60 -16 -235 -98 -253 -119 -3 -3 -18 -13 -34 -23 -43
-23 -125 -97 -246 -221 -129 -131 -115 -115 -225 -262 -49 -66 -92 -122 -95
-125 -16 -16 -71 -92 -95 -135 -16 -27 -55 -86 -86 -130 -31 -44 -67 -100 -80
-125 -13 -25 -27 -47 -30 -50 -8 -6 -32 -49 -160 -290 -133 -248 -201 -404
-270 -615 -72 -218 -84 -260 -142 -485 -22 -86 -33 -108 -113 -225 -140 -207
-223 -314 -248 -321 -21 -5 -271 10 -326 20 -63 11 -133 16 -225 17 -55 0
-140 7 -190 15 -127 22 -484 35 -1107 41 -529 4 -538 5 -538 24 0 51 43 77
160 99 35 6 82 17 105 24 22 7 72 19 110 26 39 7 93 21 120 30 50 18 98 32
295 90 58 17 117 37 132 45 14 8 31 15 37 15 25 0 307 136 401 194 241 148
428 323 517 486 99 180 118 338 61 497 -17 48 -35 90 -40 91 -4 2 -8 9 -8 16
0 19 -143 146 -165 146 -3 0 -18 9 -33 20 -118 85 -581 150 -892 124 -118 -9
-310 -42 -465 -80 -134 -33 -376 -111 -391 -127 -4 -4 -14 -7 -21 -7 -13 0
-225 -94 -283 -125 -14 -8 -70 -37 -125 -66 -55 -28 -111 -60 -125 -71 -50
-38 -128 -87 -162 -101 -18 -8 -40 -21 -48 -28 -8 -8 -42 -36 -76 -61 -33 -26
-74 -63 -90 -82 -74 -91 -84 -105 -93 -129 -14 -37 22 -82 60 -72 20 5 25 13
26 39 2 64 80 184 120 186 6 0 24 14 40 30 15 17 32 30 38 30 5 0 26 14 45 30
19 17 63 45 97 62 35 17 68 37 74 44 6 8 16 14 21 14 5 0 24 11 42 25 18 14
37 25 41 25 5 0 68 29 140 65 73 36 139 65 146 65 8 0 23 6 34 14 11 7 52 23
90 35 39 13 101 36 138 52 38 16 106 38 151 49 46 11 102 27 126 35 23 8 60
15 81 15 21 0 58 6 81 14 86 27 242 40 473 40 232 -1 283 -6 453 -43 102 -22
169 -44 216 -68 119 -61 158 -96 201 -176 106 -194 33 -464 -189 -695 -62 -65
-246 -203 -349 -263 -33 -19 -78 -45 -100 -58 -23 -13 -43 -28 -45 -32 -2 -5
-10 -9 -18 -9 -8 0 -46 -16 -84 -35 -38 -19 -75 -35 -81 -35 -6 0 -25 -6 -42
-14 -65 -29 -270 -99 -352 -121 -27 -7 -75 -22 -105 -33 -52 -20 -101 -31
-318 -72 -76 -14 -94 -15 -99 -4 -5 13 51 178 139 409 85 224 118 350 118 447
0 43 -4 78 -9 78 -18 0 -43 -54 -73 -157 -16 -58 -54 -170 -83 -247 -29 -78
-60 -164 -68 -191 -14 -45 -33 -97 -57 -150 -5 -11 -16 -45 -26 -75 -9 -30
-29 -77 -44 -105 -27 -48 -30 -51 -104 -72 -42 -12 -105 -27 -139 -32 -34 -5
-105 -19 -157 -30 -52 -12 -117 -26 -145 -32 -27 -6 -79 -20 -115 -31 -54 -17
-98 -21 -260 -24 -232 -4 -201 -3 -380 -21 -426 -43 -508 -59 -472 -95 15 -15
145 -14 257 2 39 5 95 12 125 14 30 2 110 10 177 17 93 10 126 10 135 1 16
-16 -2 -35 -59 -62 -49 -23 -103 -68 -103 -85 0 -17 14 -32 38 -39 19 -7 22
-4 22 22 0 23 7 34 33 49 57 33 254 100 387 132 102 24 354 39 364 22 5 -7 50
-11 130 -11 91 0 126 -4 135 -13 8 -10 1 -34 -30 -98 -23 -46 -56 -124 -75
-172 -19 -48 -44 -102 -58 -120 -13 -18 -33 -59 -45 -91 -12 -33 -30 -71 -40
-85 -9 -14 -28 -51 -40 -81 -46 -110 -64 -146 -87 -177 -14 -18 -31 -50 -38
-70 -8 -21 -44 -100 -80 -176 -36 -76 -66 -143 -66 -150 0 -7 -7 -22 -15 -33
-8 -10 -15 -25 -15 -32 0 -7 -32 -76 -70 -153 -78 -156 -84 -182 -44 -177 22
2 35 19 75 93 60 109 85 163 110 234 10 30 36 84 56 120 21 36 43 78 50 94 7
15 17 27 23 27 5 0 10 13 10 29 0 16 8 37 17 47 23 23 28 3 9 -34 -9 -17 -20
-48 -25 -71 -7 -34 -6 -45 8 -62 16 -21 19 -21 49 -5 57 29 69 23 74 -39 7
-82 26 -93 129 -69 23 5 28 2 37 -24 6 -17 22 -38 37 -48 28 -18 28 -18 185
32 8 2 29 -9 47 -26 38 -36 49 -37 79 -9 25 24 59 45 87 55 9 3 17 10 17 15 0
15 47 10 60 -6 20 -25 88 -18 158 15 68 32 97 37 108 19 8 -14 62 -4 83 15 19
16 88 30 94 19 2 -4 7 -20 11 -35 6 -25 0 -32 -56 -72 -35 -24 -90 -65 -123
-90 -82 -62 -256 -186 -340 -243 -38 -26 -107 -75 -152 -108 -123 -91 -233
-167 -278 -194 -22 -13 -60 -40 -85 -61 -25 -20 -60 -45 -78 -54 -35 -18 -179
-109 -199 -126 -7 -5 -15 -10 -18 -10 -3 0 -26 -15 -52 -34 -27 -18 -70 -46
-98 -61 -27 -15 -75 -43 -105 -63 -134 -86 -161 -102 -256 -150 -102 -51 -189
-82 -231 -82 -34 0 -61 33 -68 84 -10 61 -25 59 -25 -4 0 -41 5 -55 29 -82 29
-32 32 -33 102 -31 63 3 84 9 174 53 56 27 106 50 110 50 5 0 16 6 24 14 9 7
50 31 91 52 84 43 153 85 158 97 2 4 9 7 15 7 7 1 50 25 97 55 47 31 96 61
110 67 14 7 30 16 35 20 23 18 193 127 235 151 45 26 75 48 136 100 17 15 35
27 39 27 4 0 21 12 39 26 17 14 69 51 116 81 47 31 99 68 116 82 58 48 158
120 232 168 24 15 62 42 85 60 23 18 58 41 78 52 20 11 61 42 90 69 30 27 82
67 115 88 34 22 90 61 125 87 35 27 84 59 109 72 25 13 65 42 90 64 25 23 48
41 52 41 5 0 25 15 45 33 21 18 49 41 63 50 14 9 50 35 80 57 36 26 66 40 87
40 17 0 34 4 37 9 10 15 145 25 161 11 12 -10 10 -18 -18 -53 -18 -23 -39 -49
-47 -57 -9 -8 -28 -31 -44 -50 -15 -19 -77 -87 -136 -150 -59 -63 -119 -128
-133 -145 -13 -16 -151 -158 -305 -315 -259 -263 -331 -328 -512 -466 -36 -27
-70 -53 -76 -59 -20 -18 -117 -85 -213 -147 -71 -46 -95 -57 -102 -47 -9 15
-1 68 14 87 6 8 6 12 0 12 -6 0 -27 -33 -47 -73 -43 -86 -41 -113 8 -102 17 3
43 7 57 8 15 1 36 10 46 19 11 10 23 18 27 18 7 0 67 40 76 51 3 3 25 18 48
33 51 32 154 105 197 141 17 13 47 38 68 54 90 70 321 286 440 411 39 41 106
109 148 150 42 41 98 100 124 130 110 126 189 214 348 387 184 199 169 189
296 196 72 4 72 -11 3 -156 -34 -69 -73 -157 -88 -194 -15 -38 -31 -73 -36
-80 -5 -6 -29 -71 -55 -145 -53 -155 -67 -261 -39 -303 28 -43 70 -58 145 -51
102 10 215 28 226 36 6 4 23 10 39 14 51 12 194 85 230 117 19 17 45 46 57 65
28 46 48 147 42 211 -5 45 -3 53 13 58 11 4 30 12 44 20 55 31 112 55 121 49
5 -3 9 -20 9 -39 0 -43 37 -88 71 -87 13 0 64 14 113 31 l89 30 46 -26 c31
-16 59 -43 82 -76 88 -132 318 -330 477 -411 113 -58 303 -123 429 -147 57
-10 61 -13 54 -33 -5 -11 -18 -26 -30 -32 -22 -11 -115 -98 -161 -151 -14 -16
-42 -41 -63 -57 -30 -22 -37 -34 -35 -54 6 -51 39 -40 139 49 136 119 150 132
168 154 59 72 91 97 113 90 28 -9 186 -32 293 -42 44 -4 215 -7 380 -7 287 1
406 8 685 44 41 6 92 10 112 10 35 0 37 -1 28 -24 -10 -27 -91 -137 -130 -177
-14 -14 -34 -43 -45 -65 -11 -21 -22 -41 -26 -44 -12 -12 -69 -102 -69 -111 0
-5 -4 -9 -10 -9 -5 0 -10 -5 -10 -11 0 -5 -28 -54 -61 -107 -100 -158 -112
-182 -90 -182 5 0 11 10 15 22 3 13 29 52 59 88 29 36 76 101 104 146 28 45
58 90 66 100 9 10 69 91 135 179 149 198 172 222 220 230 20 4 57 13 82 20 25
8 61 17 80 20 88 17 296 85 350 114 25 13 79 42 121 63 84 42 162 105 184 149
34 65 9 170 -55 238 -17 17 -30 34 -30 38 1 11 48 63 57 63 11 0 162 149 193
190 14 18 31 39 37 46 27 26 119 173 148 233 l29 63 51 -5 c65 -7 241 -44 265
-57 10 -6 31 -10 46 -10 15 0 52 -7 83 -16 72 -20 106 -29 216 -54 109 -25
216 -55 310 -85 39 -13 144 -46 235 -75 91 -28 187 -60 214 -71 27 -10 55 -19
63 -19 7 0 18 -11 23 -24 5 -13 21 -32 35 -43 15 -10 34 -25 44 -33 55 -49 81
-57 143 -40 27 8 39 18 47 42 18 50 13 62 -33 98 -63 46 -140 72 -194 64 -29
-4 -49 -2 -65 8 -20 13 -86 39 -112 44 -44 8 -147 38 -198 58 -71 28 -194 64
-317 94 -145 35 -294 74 -315 82 -22 9 -211 53 -410 96 -38 8 -90 21 -115 29
-52 15 -121 30 -235 49 -44 8 -134 25 -200 39 -129 27 -255 50 -375 67 -41 6
-95 15 -120 19 -25 5 -56 9 -70 9 -13 1 -45 5 -70 11 -25 5 -88 15 -140 21
-133 16 -219 31 -225 40 -4 6 29 19 115 42 19 6 49 13 65 18 17 4 89 22 160
39 72 18 144 37 160 42 37 13 103 30 130 33 11 1 29 7 40 13 11 6 37 14 58 18
20 4 40 11 43 16 3 5 18 9 35 9 16 0 29 4 29 9 0 10 75 38 137 51 56 12 259
98 274 116 6 8 16 14 22 14 15 0 140 50 152 61 5 5 19 9 31 9 12 0 24 7 28 15
3 8 11 15 19 15 13 0 79 31 100 48 7 5 23 13 37 17 14 4 41 20 60 35 19 15 46
30 60 33 14 4 39 18 55 32 17 15 40 35 53 46 12 10 25 19 29 19 4 0 21 15 38
33 18 17 55 53 83 80 29 26 52 51 52 56 0 6 9 12 20 16 12 4 35 38 59 88 102
210 49 370 -160 480 -68 37 -142 58 -359 106 -224 48 -489 63 -760 40 -63 -5
-153 -12 -200 -15 -47 -4 -90 -10 -95 -15 -6 -4 -58 -15 -116 -24 -58 -8 -120
-20 -139 -26 -19 -5 -53 -14 -75 -19 -75 -16 -190 -47 -270 -73 -44 -14 -98
-30 -120 -35 -127 -32 -431 -146 -593 -223 -57 -27 -107 -49 -111 -49 -4 0
-29 -14 -55 -30 -27 -17 -85 -49 -130 -72 -137 -69 -215 -119 -270 -172 -66
-63 -90 -108 -83 -153 7 -43 43 -93 68 -93 23 0 24 8 4 34 -37 49 -8 113 91
207 45 43 193 139 214 139 4 0 10 4 12 9 4 10 161 85 248 118 36 14 79 33 95
43 17 10 59 27 95 38 36 12 88 30 115 41 93 38 403 132 462 141 32 5 77 18
100 29 23 12 56 21 72 21 17 0 40 4 53 9 13 5 57 15 98 22 41 7 92 18 114 26
21 7 57 13 80 13 22 0 59 5 81 10 91 23 660 30 734 10 23 -6 60 -10 84 -10 45
1 90 -5 105 -14 11 -6 175 -38 214 -41 15 -1 33 -7 41 -13 7 -6 33 -14 57 -18
50 -8 87 -25 141 -66 20 -16 39 -28 43 -28 14 0 58 -56 78 -99 16 -35 19 -54
13 -100 -7 -60 -42 -143 -76 -182 -87 -101 -228 -223 -302 -261 -23 -11 -53
-28 -67 -38 -23 -16 -382 -198 -460 -234 -88 -40 -524 -195 -660 -236 -119
-35 -284 -77 -405 -104 -66 -15 -136 -31 -155 -36 -19 -5 -56 -12 -82 -15 -59
-9 -70 8 -39 60 12 20 21 43 21 51 0 8 4 14 8 14 9 0 138 195 160 240 6 14 16
33 22 43 5 9 14 25 20 35 9 17 63 105 90 148 95 151 120 199 122 237 3 36 0
42 -17 42 -20 0 -70 -66 -145 -190 -17 -27 -43 -70 -58 -95 -16 -25 -41 -70
-57 -100 -16 -30 -65 -113 -109 -183 -45 -71 -99 -158 -122 -194 -23 -37 -57
-84 -77 -106 l-36 -40 -68 6 c-37 3 -144 14 -238 25 -93 11 -197 23 -230 26
-269 26 -408 37 -585 46 -235 12 -342 18 -455 25 -44 3 -125 7 -180 10 -133 7
-449 33 -556 45 -48 6 -100 10 -116 10 -52 0 -67 28 -60 114 3 41 11 85 18 97
13 25 49 58 63 59 9 0 85 60 116 90 24 24 136 107 161 120 25 13 63 41 260
188 64 48 156 116 204 152 48 36 108 84 135 108 26 23 50 42 54 42 10 0 124
88 133 103 4 7 27 25 51 40 24 16 77 60 117 98 40 39 90 82 111 97 39 28 165
150 266 257 31 33 69 72 86 87 17 14 36 37 42 50 7 12 28 39 47 58 19 19 43
45 55 56 11 12 30 38 42 57 11 20 40 64 64 97 65 93 162 273 162 302 0 6 12
43 26 82 23 62 26 88 28 214 2 79 -1 163 -5 185 -4 23 -13 74 -20 112 -7 39
-15 77 -19 85 -21 44 -40 92 -40 104 0 18 -69 96 -86 96 -8 0 -14 3 -14 8 0 4
-24 18 -52 32 -71 33 -184 37 -285 10z m253 -37 c63 -28 137 -114 167 -192 24
-63 55 -195 60 -261 6 -67 -10 -287 -23 -315 -12 -24 -38 -98 -52 -145 -13
-45 -106 -208 -163 -285 -24 -33 -53 -76 -64 -95 -41 -74 -254 -320 -277 -320
-8 0 -48 -37 -177 -163 -55 -54 -135 -122 -176 -151 -42 -29 -101 -75 -130
-102 -30 -27 -66 -56 -81 -66 -15 -9 -31 -21 -35 -27 -7 -13 -130 -107 -214
-165 -31 -21 -57 -42 -59 -47 -2 -5 -10 -9 -17 -9 -7 0 -35 -19 -61 -43 -56
-50 -164 -132 -180 -138 -6 -2 -26 -16 -45 -31 -19 -16 -74 -58 -124 -95 -49
-36 -92 -69 -95 -72 -3 -3 -31 -24 -64 -46 -32 -21 -74 -52 -94 -67 -37 -30
-72 -37 -72 -15 0 8 46 70 103 138 159 193 301 376 330 429 12 21 49 73 82
117 33 43 87 119 120 168 34 50 105 153 159 230 118 166 136 198 136 230 0 20
-5 25 -25 25 -18 0 -32 -11 -49 -39 -14 -22 -34 -46 -45 -53 -17 -12 -75 -80
-148 -173 -9 -11 -37 -45 -62 -75 -25 -30 -66 -82 -91 -114 -25 -33 -58 -74
-74 -90 -15 -17 -52 -63 -82 -102 -29 -40 -70 -92 -91 -116 -21 -25 -56 -70
-78 -101 -68 -96 -87 -70 -51 66 32 120 90 292 121 362 7 17 33 80 56 140 24
61 47 112 51 113 4 2 8 7 8 12 0 4 32 73 70 154 39 80 70 150 70 155 0 5 4 11
9 13 5 2 20 26 35 53 29 55 42 77 68 117 10 15 18 34 18 42 0 8 3 16 8 18 4 2
42 55 84 118 240 356 352 500 521 670 144 146 156 156 292 248 89 61 136 79
270 106 67 14 114 11 161 -11z m-4816 -2958 c0 -22 -33 -35 -89 -35 -78 0 -92
10 -40 31 57 22 129 25 129 4z m833 -96 c-4 -4 -21 -5 -38 -1 -30 6 -30 6 -5
12 29 8 55 1 43 -11z m218 4 c20 -20 -14 -26 -102 -20 -84 7 -103 12 -94 28 9
13 182 6 196 -8z m1719 -28 c0 -31 -32 -53 -70 -47 -39 6 -39 26 1 63 25 23
35 27 50 19 11 -6 19 -21 19 -35z m-1301 19 c63 -11 125 -15 246 -18 108 -3
267 -20 304 -32 9 -3 11 -8 5 -14 -5 -5 -71 -4 -159 1 -82 6 -181 12 -220 14
-38 2 -124 6 -191 10 -66 4 -140 8 -165 10 -69 3 -182 16 -199 22 -12 4 -11 7
5 13 23 8 321 4 374 -6z m-1094 -29 c88 -4 257 -13 375 -21 118 -8 269 -17
335 -19 66 -3 161 -10 210 -15 50 -5 171 -14 270 -20 99 -6 209 -13 245 -15
36 -2 153 -9 260 -15 224 -13 264 -20 268 -42 3 -16 -152 -138 -348 -273 -140
-97 -192 -135 -236 -173 -40 -33 -169 -122 -178 -122 -3 0 -31 -18 -63 -41
-57 -40 -59 -41 -124 -35 -45 4 -75 2 -90 -7 -13 -6 -68 -56 -121 -110 -54
-54 -98 -97 -98 -94 0 3 13 32 30 65 36 74 42 120 17 136 -15 9 -25 3 -70 -46
-71 -77 -108 -122 -165 -198 -71 -96 -184 -167 -207 -130 -4 6 36 54 89 106
97 97 138 161 151 236 6 30 4 38 -14 48 -23 12 -14 20 -129 -106 -64 -71 -84
-100 -129 -193 -25 -53 -67 -100 -89 -101 -5 0 -25 -11 -44 -25 -40 -30 -110
-35 -110 -9 0 9 42 57 94 107 121 119 172 217 134 255 -7 7 -19 12 -27 12 -18
-1 -61 -34 -61 -46 0 -8 -108 -114 -115 -114 -2 0 2 17 10 39 7 21 16 63 20
92 6 46 4 57 -12 71 -30 28 -64 10 -145 -77 -94 -101 -163 -203 -185 -275 -17
-55 -38 -90 -55 -90 -5 0 -26 -12 -47 -26 -47 -31 -90 -29 -107 4 -18 36 -5
71 35 97 100 64 214 183 259 270 61 120 64 155 12 155 -16 0 -30 -3 -32 -7 -1
-5 -32 -33 -68 -63 -75 -64 -114 -106 -155 -169 -31 -47 -77 -138 -89 -178 -9
-30 -69 -65 -103 -61 -32 4 -38 20 -28 85 6 40 16 54 87 122 79 75 123 134
167 222 26 53 25 83 -4 87 -32 4 -175 -165 -245 -290 -37 -67 -84 -110 -114
-106 -16 2 -21 9 -19 32 1 16 9 36 18 46 8 9 15 24 15 32 0 15 29 71 89 171
13 20 29 37 37 37 8 0 20 11 26 25 6 14 14 25 18 25 4 0 12 10 17 23 12 27 0
57 -22 57 -15 0 -80 -82 -116 -147 -11 -21 -27 -45 -34 -53 -7 -8 -20 -32 -29
-53 -8 -21 -20 -36 -25 -33 -10 6 32 133 49 150 6 6 10 18 10 28 0 10 4 18 9
18 5 0 19 24 31 53 38 89 73 162 80 167 7 5 21 33 77 160 13 30 31 69 40 85 8
17 40 80 70 140 29 61 57 117 62 125 11 20 54 29 121 24 30 -2 127 -6 215 -9z
m1695 -35 c0 -5 -4 -10 -10 -10 -5 0 -10 5 -10 10 0 6 5 10 10 10 6 0 10 -4
10 -10z m680 -126 c10 -10 17 -46 22 -107 15 -212 29 -313 58 -438 35 -155 36
-165 12 -200 -9 -14 -35 -52 -56 -85 -46 -68 -50 -72 -134 -120 -96 -55 -110
-21 -25 58 71 64 142 172 143 215 0 14 -27 43 -41 43 -5 0 -28 -18 -50 -39
-23 -22 -47 -37 -53 -35 -7 3 -11 28 -11 62 0 56 -1 57 -29 60 -24 3 -39 -6
-90 -60 -80 -82 -186 -244 -186 -283 0 -19 -77 -85 -99 -85 -26 0 -44 26 -38
52 13 56 40 114 68 145 16 19 29 41 29 49 0 9 27 40 59 70 63 59 73 77 60 112
-8 21 -12 22 -98 15 -119 -8 -121 -3 -52 131 87 169 119 228 134 245 8 9 22
31 32 50 25 50 92 133 123 154 23 15 41 17 117 12 59 -4 95 -11 105 -21z m324
-4 c173 -13 441 -50 721 -100 163 -29 539 -116 785 -181 85 -23 184 -48 219
-55 35 -8 83 -24 107 -34 23 -11 49 -20 56 -20 15 0 93 -27 120 -41 28 -15 22
-41 -29 -113 -27 -36 -77 -107 -113 -158 -36 -51 -90 -122 -120 -159 -30 -37
-77 -97 -105 -133 -56 -75 -156 -199 -213 -266 -22 -25 -72 -85 -111 -135 -40
-49 -94 -113 -119 -140 -26 -28 -63 -70 -82 -93 -22 -27 -45 -44 -65 -47 -96
-18 -448 119 -650 253 -88 58 -296 250 -330 304 -20 32 -16 41 27 62 44 22 71
20 98 -9 27 -29 64 -32 117 -10 40 17 93 20 93 5 0 -5 10 -18 22 -30 33 -31
103 -27 175 10 69 36 80 37 111 8 99 -93 572 151 674 348 31 60 32 64 20 111
-13 50 -50 93 -81 93 -26 0 -105 -54 -129 -88 -23 -31 -27 -63 -12 -97 8 -19
9 -19 9 3 2 55 51 112 97 112 95 0 58 -135 -69 -250 -71 -64 -225 -149 -342
-189 -71 -25 -98 -26 -116 -5 -16 20 4 56 73 133 54 59 157 201 183 251 20 38
16 79 -8 94 -15 9 -23 6 -43 -19 -14 -16 -54 -59 -89 -95 -70 -72 -118 -143
-163 -241 -31 -69 -51 -88 -139 -133 -58 -29 -83 -32 -101 -14 -24 24 -10 50
74 131 145 139 217 268 169 307 -23 19 -50 3 -128 -73 -68 -67 -155 -193 -172
-248 -4 -13 -14 -31 -21 -40 -19 -21 -117 -54 -138 -46 -38 15 -26 37 81 144
125 125 161 182 144 227 -10 25 -15 28 -42 22 -42 -8 -163 -117 -206 -184 -19
-29 -41 -71 -49 -94 -16 -46 -30 -59 -94 -88 -48 -22 -91 -23 -98 -2 -4 12 11
28 108 117 60 55 150 200 150 241 0 9 -34 34 -45 34 -24 0 -156 -116 -220
-192 -21 -27 -43 -48 -47 -48 -13 0 -48 63 -48 87 0 12 14 42 30 66 17 26 30
58 30 76 0 27 -3 31 -29 31 -16 0 -34 -7 -41 -15 -18 -21 -37 -19 -51 7 -22
41 -56 243 -69 405 -11 148 -11 165 4 188 19 29 25 30 230 15z m1016 -49 c19
-6 118 -15 220 -22 102 -6 199 -13 215 -15 17 -2 84 -8 150 -13 145 -13 245
-30 245 -43 0 -5 -5 -6 -10 -3 -6 4 -16 3 -23 -3 -7 -5 -34 -15 -62 -22 -72
-19 -105 -37 -115 -65 -6 -17 -17 -25 -32 -25 -23 0 -280 64 -483 119 -60 17
-121 31 -135 31 -34 1 -121 33 -123 45 -2 8 36 17 103 23 8 1 31 -2 50 -7z
m1421 -140 c30 -5 97 -15 149 -21 132 -15 200 -26 475 -71 132 -22 269 -44
305 -50 36 -5 79 -13 95 -18 17 -5 53 -12 81 -15 28 -4 77 -14 110 -22 32 -9
86 -22 119 -28 33 -7 60 -17 60 -23 0 -6 -72 -85 -160 -175 -88 -91 -192 -199
-232 -241 -40 -42 -77 -77 -83 -77 -14 0 -13 4 9 42 44 75 47 158 6 158 -8 0
-41 -27 -74 -60 l-59 -60 -54 24 c-29 13 -91 43 -138 66 -192 94 -227 110
-239 110 -6 0 -40 13 -74 29 -34 16 -109 45 -167 65 -58 20 -118 41 -135 47
-109 40 -164 58 -191 64 -18 3 -40 15 -49 25 -17 18 -16 21 18 68 19 27 43 64
52 81 31 60 64 89 106 90 9 1 40 -3 70 -8z m-241 -12 c0 -6 -25 -49 -55 -95
l-55 -84 -45 0 c-25 0 -53 4 -63 9 -26 13 -107 38 -202 62 -47 11 -89 25 -95
31 -20 19 25 35 152 53 240 35 363 43 363 24z m-3031 -106 c-23 -43 -59 -113
-81 -155 -53 -104 -57 -108 -132 -108 -34 0 -66 3 -69 6 -10 10 13 46 62 95
25 25 86 89 135 142 53 57 98 97 109 97 16 0 14 -10 -24 -77z m-204 -51 c-41
-43 -90 -96 -107 -117 -73 -87 -84 -96 -123 -105 -22 -5 -61 -10 -87 -10 -40
0 -48 3 -48 18 0 19 27 41 150 122 41 27 107 72 145 100 77 55 101 68 128 69
12 1 -8 -25 -58 -77z m3306 -143 c35 -11 73 -24 84 -29 11 -4 45 -16 75 -25
161 -49 519 -202 520 -222 0 -7 -15 -25 -32 -40 -90 -77 -169 -189 -190 -271
-11 -46 -34 -62 -111 -76 -87 -16 -104 26 -30 77 26 17 63 47 83 66 19 18 42
38 50 45 22 16 86 107 94 133 11 33 -10 63 -43 63 -60 0 -216 -146 -268 -250
l-38 -74 -79 -34 c-90 -39 -132 -38 -117 1 17 44 72 116 146 191 65 65 75 79
75 110 0 32 -3 36 -27 36 -31 0 -130 -97 -189 -186 -35 -52 -95 -109 -141
-133 -27 -14 -70 -14 -78 -1 -11 18 34 85 111 165 134 141 187 243 132 261
-17 5 -29 -1 -54 -28 -50 -55 -102 -87 -91 -55 6 18 -11 47 -29 47 -23 0 -246
-228 -267 -272 -9 -20 -17 -47 -17 -60 0 -44 -54 -88 -107 -88 -38 0 -38 0
-17 59 23 67 28 75 91 147 10 11 38 33 63 50 30 20 46 38 48 54 7 70 16 92 59
146 25 32 62 84 81 114 70 111 91 119 213 79z m1604 -29 c3 -5 2 -17 -4 -27
-5 -10 -21 -43 -37 -73 -15 -30 -43 -77 -63 -105 -50 -70 -267 -285 -288 -285
-21 0 -53 28 -53 47 0 7 7 16 15 19 8 3 32 29 52 58 21 28 44 55 52 60 8 5 28
25 45 44 17 19 50 53 74 76 91 86 182 181 182 188 0 11 18 10 25 -2z m-4696
-89 c11 -7 7 -20 -22 -67 -77 -129 -127 -273 -113 -328 10 -41 45 -52 102 -32
62 21 76 20 118 -5 l35 -21 34 26 c19 14 46 26 62 26 27 0 27 0 21 -52 -22
-199 -58 -268 -164 -322 -63 -32 -193 -67 -237 -64 -23 1 -42 -6 -64 -25 -18
-15 -43 -27 -56 -27 -12 0 -36 -3 -52 -6 -23 -4 -36 0 -58 18 -23 20 -27 32
-27 73 0 77 47 237 108 370 31 66 62 134 69 150 7 17 31 68 53 115 21 47 42
95 46 107 17 53 102 91 145 64z m-2096 -103 c2 -7 1 -23 -4 -36 -10 -25 -154
-172 -169 -172 -34 0 34 117 105 182 42 39 60 46 68 26z m247 -18 c0 -46 -45
-126 -97 -173 -25 -23 -53 -50 -62 -59 -8 -10 -24 -18 -34 -18 -16 0 -18 5
-14 29 9 45 168 251 193 251 9 0 14 -11 14 -30z m860 -18 c0 -13 -12 -22 -22
-16 -10 6 -1 24 13 24 5 0 9 -4 9 -8z m1950 -14 c0 -25 -99 -138 -121 -138
-18 0 -8 27 19 54 15 14 41 42 57 61 31 36 45 43 45 23z m-2651 -45 c-20 -38
-67 -93 -81 -93 -16 0 -8 23 20 55 15 17 34 42 42 53 25 38 40 26 19 -15z
m2891 27 c0 -12 -32 -50 -42 -50 -12 0 -9 29 5 45 14 16 37 20 37 5z m-2285
-50 c-3 -5 -11 -10 -16 -10 -6 0 -7 5 -4 10 3 6 11 10 16 10 6 0 7 -4 4 -10z
m5043 -26 c23 -14 42 -32 42 -40 0 -16 -18 -55 -29 -64 -4 -3 -28 -37 -54 -76
-41 -61 -56 -74 -108 -98 -97 -44 -190 -46 -189 -2 1 6 21 27 47 46 100 77
153 145 183 235 11 33 15 36 39 30 14 -3 45 -18 69 -31z m-3678 14 c0 -35 -99
-143 -123 -135 -28 9 -15 39 39 90 53 50 84 66 84 45z m417 -38 c32 -62 27
-108 -12 -131 -49 -28 -131 -45 -150 -29 -29 24 -17 59 51 155 50 70 77 71
111 5z m-1938 -20 c-7 -19 -18 -30 -30 -30 -25 0 -24 15 1 40 29 29 41 25 29
-10z m4746 -32 c-31 -36 -92 -84 -100 -77 -7 7 38 69 51 69 5 0 21 14 33 31
16 21 26 28 33 21 8 -8 2 -21 -17 -44z m263 25 c-25 -58 -119 -155 -135 -140
-9 9 37 87 61 102 12 8 28 26 34 40 7 15 20 25 32 25 18 0 18 -3 8 -27z
m-5656 -53 c-6 -11 -12 -27 -12 -35 0 -8 -24 -31 -54 -50 -30 -19 -57 -39 -61
-45 -3 -5 -19 -10 -36 -10 -49 0 -37 32 32 81 33 24 74 56 92 72 35 31 61 22
39 -13z m4693 0 c-10 -11 -20 -18 -23 -15 -7 6 18 35 31 35 5 0 2 -9 -8 -20z
m-4132 -30 c-6 -24 -19 -34 -27 -21 -9 14 4 41 19 41 8 0 11 -8 8 -20z m5447
1 c0 -13 -41 -63 -84 -101 -22 -19 -43 -39 -47 -45 -62 -79 -87 -93 -74 -43 6
24 36 57 108 120 21 18 48 43 60 55 23 24 37 29 37 14z m75 -81 c-9 -15 -66
-42 -73 -36 -3 4 10 22 28 41 28 29 36 32 43 20 4 -8 5 -20 2 -25z m-1395 -52
c0 -5 9 -23 21 -39 26 -37 72 -39 123 -4 47 32 62 31 78 -2 21 -44 55 -50 139
-23 41 13 78 27 83 32 17 15 32 9 71 -27 43 -41 56 -41 170 -4 l66 22 24 -23
c21 -20 35 -24 88 -23 34 1 84 9 111 18 39 13 50 14 57 4 4 -7 5 -17 3 -21 -3
-4 2 -21 12 -37 19 -33 16 -41 -42 -103 -22 -23 -62 -68 -88 -98 -86 -99 -174
-188 -194 -199 -31 -17 -252 -51 -392 -62 -461 -34 -783 -35 -996 -4 -149 22
-156 24 -152 39 2 7 33 46 70 87 37 41 88 99 114 129 106 126 130 154 159 184
17 17 43 48 59 69 16 20 33 37 38 37 6 0 26 -14 45 -31 23 -20 41 -28 52 -23
9 3 27 9 40 12 14 3 45 20 69 39 24 18 53 33 65 33 12 0 38 8 57 18 36 19 50
19 50 0z m1481 -31 c35 -43 59 -91 59 -117 0 -54 -80 -145 -149 -170 -20 -7
-47 -20 -61 -30 -14 -9 -45 -24 -70 -33 -25 -8 -70 -25 -100 -38 -117 -46
-197 -70 -260 -76 l-65 -6 29 34 c61 74 305 328 333 346 10 7 45 27 78 44 33
17 62 34 65 38 12 15 67 39 90 40 17 1 33 -10 51 -32z"/>
<path d="M6779 4185 c42 -19 51 -19 51 0 0 11 -11 15 -42 15 l-43 -1 34 -14z"/>
<path d="M1095 1560 c3 -5 8 -10 11 -10 2 0 4 5 4 10 0 6 -5 10 -11 10 -5 0
-7 -4 -4 -10z"/>
</g>
</svg>
