<?xml version="1.0" encoding="utf-8"?>
<!-- Generator: Adobe Illustrator 23.0.0, SVG Export Plug-In . SVG Version: 6.00 Build 0)  -->
<svg version="1.1" id="Capa_1" xmlns="http://www.w3.org/2000/svg" xmlns:xlink="http://www.w3.org/1999/xlink" x="0px" y="0px"
	 viewBox="0 0 277 148" style="enable-background:new 0 0 277 148;" xml:space="preserve">
<style type="text/css">
	.st0{fill:#FFFFFF;}
</style>
<g>
	<path class="st0" d="M103.85,108.19c-0.7,0-1.31-0.25-1.82-0.77c-0.51-0.51-0.77-1.12-0.77-1.82V43.58c0-0.7,0.25-1.31,0.77-1.82
		c0.51-0.51,1.12-0.77,1.82-0.77h12.58c0.7,0,1.31,0.26,1.82,0.77c0.51,0.51,0.77,1.12,0.77,1.82v62.02c0,0.71-0.26,1.31-0.77,1.82
		c-0.51,0.51-1.12,0.77-1.82,0.77H103.85z"/>
</g>
<g>
	<path class="st0" d="M62.92,39.85c4.1,0,7.86,0.59,11.28,1.78c3.42,1.19,6.38,2.7,8.88,4.56c2.5,1.86,4.45,3.9,5.86,6.14
		c1.41,2.24,2.14,4.38,2.21,6.43c0,0.58-0.21,1.07-0.62,1.49c-0.42,0.42-0.88,0.62-1.39,0.62H76.56c-0.9,0-1.62-0.13-2.16-0.38
		c-0.54-0.25-1.1-0.64-1.68-1.15c-0.19-0.19-0.5-0.51-0.91-0.96c-0.42-0.45-1.01-0.91-1.78-1.39c-0.77-0.48-1.73-0.9-2.88-1.25
		c-1.15-0.35-2.56-0.53-4.22-0.53c-1.22,0-2.38,0.08-3.5,0.24c-1.12,0.16-2.11,0.42-2.98,0.77c-0.86,0.35-1.57,0.85-2.11,1.49
		c-0.54,0.64-0.82,1.44-0.82,2.4c0,0.96,0.3,1.76,0.91,2.4c0.61,0.64,1.63,1.23,3.07,1.78c1.44,0.55,3.34,1.07,5.71,1.58
		c2.37,0.51,5.31,1.12,8.83,1.82c3.52,0.7,6.59,1.6,9.22,2.69c2.62,1.09,4.82,2.45,6.58,4.08c1.76,1.63,3.07,3.55,3.94,5.76
		c0.86,2.21,1.3,4.82,1.3,7.82c0,3.26-0.74,6.18-2.21,8.74c-1.47,2.56-3.54,4.75-6.19,6.58c-2.66,1.82-5.79,3.22-9.41,4.18
		c-3.62,0.96-7.57,1.44-11.86,1.44c-4.35,0-8.32-0.57-11.9-1.73c-3.59-1.15-6.67-2.67-9.26-4.56c-2.59-1.89-4.62-4.02-6.1-6.38
		c-1.47-2.37-2.24-4.77-2.3-7.2c0-0.58,0.21-1.07,0.62-1.49c0.42-0.42,0.88-0.62,1.39-0.62h12.58c0.9,0,1.6,0.11,2.11,0.34
		c0.51,0.23,1.02,0.56,1.54,1.01c0.25,0.26,0.64,0.67,1.15,1.25c0.51,0.58,1.2,1.17,2.06,1.78c0.86,0.61,1.95,1.14,3.26,1.58
		c1.31,0.45,2.93,0.67,4.85,0.67c3.39,0,6.22-0.37,8.5-1.1c2.27-0.73,3.41-2.06,3.41-3.98c0-0.96-0.42-1.76-1.25-2.4
		c-0.83-0.64-2.08-1.23-3.74-1.78c-1.66-0.54-3.79-1.07-6.38-1.58c-2.59-0.51-5.65-1.15-9.17-1.92c-6.59-1.41-11.41-3.76-14.45-7.05
		c-3.04-3.3-4.56-7.7-4.56-13.2c0-2.75,0.62-5.38,1.87-7.87c1.25-2.5,3.06-4.7,5.42-6.63c2.37-1.92,5.23-3.44,8.59-4.56
		C55,40.41,58.76,39.85,62.92,39.85z"/>
</g>
<g>
	<path class="st0" d="M70.01,146.25c-25.09,0-47.69-13.5-58.99-35.23C3.51,96.58,0.41,79.85,2.28,63.91
		c0.91-7.77,2.97-15.31,6.11-22.43C18.9,17.65,42.83,2.25,69.36,2.25h133.4c37.3,0,68.85,28.67,71.82,65.27
		c0.07,0.82,0.12,1.64,0.16,2.46c0.22,4.45,0.07,8.95-0.44,13.37c-4.2,35.86-34.96,62.89-71.55,62.89H70.01z M69.36,10.75
		c-23.17,0-44.05,13.41-53.2,34.16c-2.8,6.34-4.63,13.07-5.44,19.99c-1.68,14.27,1.11,29.26,7.84,42.2
		c9.83,18.91,29.54,30.65,51.45,30.65h101.87l-1.02-0.48c-24.06-11.28-39.61-35.72-39.61-62.27c0-28.19,16.9-53.22,43.06-63.77
		l1.19-0.48H69.36z M162.58,44.1c-10.56,2.33-18.36,10.13-19.4,19.42c-0.54,3.46-0.83,6.99-0.87,10.5
		c-0.05,4.09,0.25,8.22,0.88,12.26c0.38,2.35,1.8,8.37,6.88,13.65c3.51,3.65,7.85,5.95,12.54,6.64c2.48,0.58,5.02,0.88,7.53,0.88
		c2.51,0,5-0.3,7.41-0.89c2.64-0.64,10.66-2.6,15.86-9.7c2.77-3.78,3.61-7.72,4.35-11.19l0.05-0.25c0.91-4.24,0.89-7.55,0.88-11.4
		c-0.02-5.42-0.03-8.13-0.88-11.42c-1.44-5.58-4.7-10.61-9.68-14.97c-1.65-1.18-3.43-2.07-5.33-2.67c-1.72-0.54-3.5-0.84-5.31-0.88
		l-0.26-0.01v16.11l0.13,0.07c0.74,0.42,1.77,1.21,2.53,2.53c0.97,1.69,0.94,3.36,0.84,4.21l0,14.87c0.09,1.13,0.16,4.98-2.55,7.68
		c-1.72,1.72-3.76,2.22-5.11,2.55c-0.62,0.15-1.76,0.43-3.12,0.43c-0.98,0-1.95-0.14-2.87-0.42c-0.71-0.22-2.56-0.9-4.26-2.56
		c-2.7-2.63-3.3-5.95-3.42-7.7l0-14.82c0.08-1.17,0.36-2.31,0.85-3.39c0.59-1.29,1.47-2.47,2.55-3.41l0.09-0.07V44.04L162.58,44.1z
		 M236.62,100.26c0.18,0.29,0.56,0.7,1.18,1.22c0.63,0.54,1.46,0.81,2.47,0.81h8.72c0.68,0,1.28-0.25,1.77-0.74
		c0.49-0.49,0.74-1.09,0.74-1.77V45.65c0-0.68-0.25-1.27-0.74-1.77c-0.49-0.49-1.09-0.74-1.77-0.74H238c-0.68,0-1.28,0.25-1.77,0.74
		c-0.49,0.49-0.74,1.09-0.74,1.77v27.5l-18.73-27.98c-0.18-0.29-0.56-0.7-1.18-1.22c-0.63-0.54-1.46-0.81-2.47-0.81h-8.72
		c-0.68,0-1.28,0.25-1.77,0.74c-0.49,0.49-0.74,1.09-0.74,1.77v54.14c0,0.68,0.25,1.28,0.74,1.77c0.49,0.49,1.08,0.74,1.77,0.74
		h10.98c0.68,0,1.28-0.25,1.77-0.74c0.49-0.49,0.74-1.09,0.74-1.77v-27.5L236.62,100.26z M170.02,40.61c-1.99,0-3.61,1.58-3.61,3.52
		v15.84c0,1.94,1.62,3.52,3.61,3.52s3.61-1.58,3.61-3.52V44.12C173.63,42.19,172.01,40.61,170.02,40.61z"/>
	<path class="st0" d="M202.77,2.5c37.17,0,68.61,28.57,71.57,65.04c0.07,0.84,0.12,1.66,0.16,2.46c0.22,4.44,0.07,8.92-0.44,13.33
		c-4.19,35.73-34.84,62.67-71.3,62.67H70.01c-24.99,0-47.51-13.45-58.77-35.09C3.76,96.51,0.66,79.83,2.53,63.94
		c0.91-7.74,2.96-15.26,6.09-22.36C19.08,17.84,42.93,2.5,69.36,2.5H202.77 M70.01,138h100.75H173l-2.03-0.95
		c-11.63-5.45-21.47-14.03-28.48-24.83C135.3,101.14,131.5,88.27,131.5,75c0-13.93,4.16-27.33,12.02-38.76
		c7.68-11.16,18.36-19.73,30.88-24.78l2.39-0.96h-2.58H69.36c-23.26,0-44.24,13.47-53.43,34.31c-2.81,6.37-4.64,13.12-5.46,20.06
		c-1.68,14.32,1.11,29.36,7.86,42.34C28.21,126.2,48.01,138,70.01,138 M170.02,63.73c2.13,0,3.86-1.69,3.86-3.77V44.12
		c0-2.08-1.73-3.77-3.86-3.77s-3.86,1.69-3.86,3.77v15.84C166.16,62.04,167.89,63.73,170.02,63.73 M235.24,72.33l-18.26-27.27
		c-0.2-0.33-0.6-0.75-1.23-1.29c-0.68-0.58-1.56-0.87-2.63-0.87h-8.72c-0.75,0-1.4,0.27-1.95,0.82c-0.54,0.54-0.82,1.2-0.82,1.95
		v54.14c0,0.75,0.28,1.41,0.82,1.94c0.54,0.54,1.19,0.82,1.95,0.82h10.98c0.75,0,1.4-0.28,1.95-0.82c0.54-0.54,0.82-1.2,0.82-1.95
		V73.11l18.26,27.27c0.2,0.33,0.59,0.74,1.23,1.29c0.68,0.58,1.56,0.87,2.63,0.87h8.72c0.75,0,1.4-0.28,1.95-0.82
		c0.54-0.54,0.82-1.2,0.82-1.95V45.65c0-0.75-0.27-1.4-0.82-1.95c-0.54-0.54-1.2-0.82-1.95-0.82H238c-0.75,0-1.4,0.27-1.95,0.82
		c-0.54,0.54-0.82,1.2-0.82,1.95V72.33 M170.13,107.71c2.53,0,5.04-0.3,7.46-0.89c2.66-0.65,10.75-2.62,16-9.79
		c2.8-3.83,3.65-7.79,4.4-11.29l0.05-0.25c0.91-4.27,0.9-7.76,0.88-11.46c-0.02-5.43-0.03-8.15-0.89-11.47
		c-1.45-5.62-4.74-10.7-9.8-15.12c-1.65-1.17-3.45-2.08-5.38-2.69c-1.74-0.55-3.55-0.85-5.38-0.9l-0.51-0.01v0.51v15.71v0.29
		l0.25,0.14c0.71,0.41,1.71,1.16,2.43,2.43c0.93,1.63,0.91,3.24,0.81,4.06l0,0.03v0.03l0,14.88c0.08,1.09,0.15,4.84-2.47,7.46
		c-1.67,1.67-3.67,2.16-5,2.49c-0.6,0.15-1.71,0.42-3.05,0.42c-0.95,0-1.9-0.14-2.8-0.41c-0.7-0.21-2.49-0.88-4.16-2.5
		c-2.64-2.57-3.23-5.82-3.34-7.5l0-14.81c0.08-1.15,0.36-2.27,0.83-3.32c0.57-1.26,1.43-2.41,2.49-3.32l0.17-0.15v-0.23V44.35v-0.62
		l-0.61,0.13c-10.67,2.35-18.54,10.24-19.59,19.62c-0.54,3.48-0.84,7.03-0.88,10.55c-0.05,4.1,0.25,8.24,0.88,12.31
		c0.38,2.37,1.82,8.46,6.94,13.78c3.55,3.69,7.94,6.01,12.64,6.71C165.04,107.41,167.6,107.71,170.13,107.71 M202.77,2H69.36
		C42.73,2,18.71,17.46,8.16,41.38c-3.15,7.14-5.21,14.71-6.13,22.5c-1.88,15.99,1.24,32.78,8.76,47.25
		c11.34,21.81,34.03,35.36,59.21,35.36h132.74c36.72,0,67.58-27.13,71.8-63.11c0.52-4.44,0.67-8.95,0.45-13.41
		c-0.04-0.83-0.1-1.65-0.16-2.47C271.85,30.77,240.2,2,202.77,2L202.77,2z M70.01,137.5c-21.81,0-41.44-11.69-51.23-30.52
		c-6.71-12.9-9.48-27.83-7.81-42.05c0.81-6.9,2.63-13.6,5.42-19.92C25.5,24.35,46.3,11,69.36,11h104.85
		C148.88,21.22,131,46.01,131,75c0,27.65,16.27,51.49,39.76,62.5H70.01L70.01,137.5z M170.02,63.23c-1.86,0-3.36-1.46-3.36-3.27
		V44.12c0-1.8,1.5-3.27,3.36-3.27c1.86,0,3.36,1.46,3.36,3.27v15.84C173.38,61.77,171.88,63.23,170.02,63.23L170.02,63.23z
		 M235.74,73.97V45.65c0-0.61,0.22-1.14,0.67-1.59c0.45-0.45,0.98-0.67,1.59-0.67h10.98c0.61,0,1.14,0.22,1.59,0.67
		c0.45,0.45,0.67,0.98,0.67,1.59v54.14c0,0.62-0.22,1.15-0.67,1.59c-0.45,0.45-0.98,0.67-1.59,0.67h-8.72
		c-0.95,0-1.72-0.25-2.3-0.75c-0.59-0.5-0.96-0.89-1.13-1.17l-19.19-28.66v28.33c0,0.62-0.22,1.15-0.67,1.59
		c-0.45,0.45-0.98,0.67-1.59,0.67h-10.98c-0.62,0-1.15-0.22-1.59-0.67c-0.45-0.45-0.67-0.98-0.67-1.59V45.65
		c0-0.61,0.22-1.14,0.67-1.59c0.45-0.45,0.98-0.67,1.59-0.67h8.72c0.95,0,1.72,0.25,2.3,0.75c0.59,0.5,0.96,0.89,1.13,1.17
		L235.74,73.97L235.74,73.97z M169.95,92.8c1.35,0,2.45-0.26,3.16-0.43c1.33-0.33,3.46-0.84,5.24-2.62
		c2.92-2.92,2.68-7.05,2.62-7.86c0-4.95,0-9.89,0-14.84c0.08-0.63,0.21-2.47-0.87-4.36c-0.86-1.5-2.04-2.29-2.62-2.62V44.35
		c1.33,0.03,3.17,0.22,5.24,0.87c2.33,0.74,4.08,1.8,5.24,2.62c6.84,5.98,8.86,11.97,9.6,14.84c0.84,3.26,0.85,5.95,0.87,11.35
		c0.02,3.76,0.03,7.13-0.87,11.35c-0.76,3.54-1.56,7.52-4.36,11.35c-5.14,7.02-12.99,8.94-15.71,9.6c-2.63,0.64-5.11,0.88-7.35,0.88
		c-3.01,0-5.58-0.43-7.5-0.88c-4.7-0.69-9.01-3.05-12.4-6.57c-5-5.2-6.42-11.11-6.81-13.51c-0.54-3.47-0.93-7.59-0.87-12.22
		c0.05-3.91,0.4-7.43,0.87-10.48c1.01-9.04,8.68-16.89,19.21-19.21v15.71c-0.69,0.59-1.82,1.72-2.62,3.49
		c-0.63,1.4-0.82,2.66-0.87,3.49c0,4.95,0,9.89,0,14.84c0.08,1.15,0.48,4.92,3.49,7.86c1.88,1.83,3.9,2.48,4.36,2.62
		C168.06,92.68,169.06,92.8,169.95,92.8L169.95,92.8z"/>
</g>
<g>
</g>
<g>
</g>
<g>
</g>
<g>
</g>
<g>
</g>
<g>
</g>
<g>
</g>
<g>
</g>
<g>
</g>
<g>
</g>
<g>
</g>
<g>
</g>
<g>
</g>
<g>
</g>
<g>
</g>
</svg>
