<svg id="Capa_1" data-name="Capa 1" xmlns="http://www.w3.org/2000/svg" viewBox="0 0 812.03 247.54"><defs><style>.cls-1{fill:#fff;stroke:#fff;stroke-miterlimit:10;}</style></defs><title>SICAN</title><path class="cls-1" d="M157.6,203.4c33.2-9.8,77.4-10.9,110.1-8.9A123.28,123.28,0,0,0,157.6,203.4Z" transform="translate(-97.77 -185.02)"/><path class="cls-1" d="M116.4,244.4a123.31,123.31,0,0,0,29.9,162C344.1,378.8,141.2,293,116.4,244.4Z" transform="translate(-97.77 -185.02)"/><path class="cls-1" d="M212.4,296.6a131.52,131.52,0,0,0,15.2,13.7l92.7,70.4a5.72,5.72,0,0,1,.8.7,123.23,123.23,0,0,0-25-170.8c-2.2-1.6-4.4-3.2-6.6-4.7C173.3,214.2,169.1,250.5,212.4,296.6Z" transform="translate(-97.77 -185.02)"/><path class="cls-1" d="M279.4,417.7c-31.4,8.8-72.4,9-103.2,5.8A124,124,0,0,0,279.4,417.7Z" transform="translate(-97.77 -185.02)"/><path class="cls-1" d="M289.6,206l8.8-.6c31.2-1.7,8.4-8.5-30.6-10.9A116.9,116.9,0,0,1,289.6,206Z" transform="translate(-97.77 -185.02)"/><path class="cls-1" d="M321.2,381.4a24.26,24.26,0,0,0-1.4,2,122.91,122.91,0,0,1-40.3,34.3c19.3-5.4,35-14.2,42.4-27.5A7,7,0,0,0,321.2,381.4Z" transform="translate(-97.77 -185.02)"/><path class="cls-1" d="M147,406.9c-0.2-.2-0.4-0.3-0.6-0.5-0.3,0-.6.1-0.9,0.1-29.4,4.1-7,13,30.8,16.9A120.09,120.09,0,0,1,147,406.9Z" transform="translate(-97.77 -185.02)"/><path class="cls-1" d="M157.6,203.4c-17.4,5.1-31.8,12.6-39.9,23.3h0l-0.1.1,0.1,0.1c-4.7,5-4.6,10.9-1.3,17.6a115.24,115.24,0,0,1,7-10.2A123.39,123.39,0,0,1,157.6,203.4Z" transform="translate(-97.77 -185.02)"/><path class="cls-1" d="M404.6,223.5V386.1H369.4V223.5h35.2Z" transform="translate(-97.77 -185.02)"/><path class="cls-1" d="M581.4,335.8c-6.4,30.4-29.3,52.6-70.1,52.6-51.7,0-76-36.6-76-82.8,0-44.6,25.3-84.5,77.6-84.5,43.4,0,64.4,25.3,68.4,52.6H546.1c-3.5-12.7-12.3-25.3-34.5-25.3-29,0-40.1,26.2-40.1,55.9,0,27.4,9.7,56.4,41.1,56.4,23.1,0,30.2-15.3,33.3-25h35.5v0.1Z" transform="translate(-97.77 -185.02)"/><path class="cls-1" d="M639,348.6l-12.5,37.5H591.8L647,223.5h44.1l57.8,162.6H711.8l-13.5-37.5H639Zm51.9-28.8c-11.6-34.5-18.9-56.4-22.9-71h-0.2c-4,16-12,41.5-21.2,71h44.3Z" transform="translate(-97.77 -185.02)"/><path class="cls-1" d="M769.7,386.1V223.5h43.7c20.3,36.3,57.8,102.4,65.4,120.1h0.5c-1.9-17-1.9-45.3-1.9-72V223.5h31.9V386.1H868c-17.5-31.9-59-107.4-67.3-126.3h-0.5c1.2,14.2,1.7,47.7,1.7,76.7v49.6H769.7Z" transform="translate(-97.77 -185.02)"/></svg>