<svg xmlns="http://www.w3.org/2000/svg" viewBox="0 0 1193.31 347.23"><defs><style>.cls-1{fill:#fff;}.cls-2{fill:#b4c6db;}</style></defs><g id="Capa_2" data-name="Capa 2"><path class="cls-1" d="M220.16,340.2V476.7c0,4.85-2.73,7.58-7.59,7.58H182.24c-4.86,0-7.59-2.73-7.59-7.58v-6.27c-7.12,10.54-20,18.1-39.43,18.1-28.21,0-48.53-21.84-48.53-59.76V340.2c0-4.86,2.73-7.59,7.58-7.59H124.6c4.86,0,7.59,2.73,7.59,7.59v84.63c0,15.16,8.79,21.84,20.32,21.84,13.65,0,22.14-7.59,22.14-25.48v-81c0-4.86,2.73-7.59,7.59-7.59h30.33C217.43,332.61,220.16,335.34,220.16,340.2Z" transform="translate(-86.69 -210.77)"/><path class="cls-1" d="M387,388.12V476.7c0,4.85-2.73,7.58-7.58,7.58H349.07c-4.85,0-7.58-2.73-7.58-7.58V392.07c0-15.17-8.8-21.84-20.32-21.84-13.65,0-22.15,7.58-22.15,25.48v81c0,4.85-2.73,7.58-7.58,7.58H261.11c-4.86,0-7.59-2.73-7.59-7.58V340.2c0-4.86,2.73-7.59,7.59-7.59h30.33c4.85,0,7.58,2.73,7.58,7.59v6.26c7.13-10.54,20-18.1,39.44-18.1C366.67,328.36,387,350.21,387,388.12Z" transform="translate(-86.69 -210.77)"/><path class="cls-1" d="M416.41,306.83v-27.3c0-4.86,2.73-7.59,7.59-7.59h30.33c4.85,0,7.58,2.73,7.58,7.59v27.3c0,4.85-2.73,7.58-7.58,7.58H424C419.14,314.41,416.41,311.68,416.41,306.83Zm0,169.87V340.2c0-4.86,2.73-7.59,7.59-7.59h30.33c4.85,0,7.58,2.73,7.58,7.59V476.7c0,4.85-2.73,7.58-7.58,7.58H424C419.14,484.28,416.41,481.55,416.41,476.7Z" transform="translate(-86.69 -210.77)"/><path class="cls-1" d="M956.71,271.94a2.77,2.77,0,0,1,3,3V481.24a2.77,2.77,0,0,1-3,3h-4.65a2.76,2.76,0,0,1-3-3V443.48c-12,26.41-37.6,44-69.16,44-43.58,0-78.87-34.38-78.87-79.07s35.29-79.07,78.87-79.07c31.56,0,57.16,17.63,69.16,44V275a2.77,2.77,0,0,1,3-3ZM949,408.44c0-38.73-30.13-69-68.66-69s-68.65,30.23-68.65,69,30.13,69,68.65,69S949,447.16,949,408.44Z" transform="translate(-86.69 -210.77)"/><path class="cls-1" d="M1033.77,329.37c30.53,0,54.6,19.11,54.6,54.3v97.57a2.77,2.77,0,0,1-3,3h-4.65a2.77,2.77,0,0,1-3-3V464.43c-9.19,16.62-28.42,23.08-50.26,23.08-28.71,0-54.29-16.07-54.29-46.81s25.58-46.81,54.29-46.81c22,0,40.87,7.74,50.26,22.85V383.68c0-29.33-19.42-44.19-43.89-44.19-23.66,0-42.06,12.64-43.68,35.19-.3,1.82-1.31,2.93-3.13,2.93H982.3a2.75,2.75,0,0,1-3-3.14c1.71-26.59,23.15-45.1,54.49-45.1ZM1029,477.61c26.29,0,48.64-10.92,48.64-36.91,0-26.39-23.36-36.9-48.64-36.9-28.41,0-45.19,15-45.19,36.9s16.78,36.9,45.19,36.9Z" transform="translate(-86.69 -210.77)"/><path class="cls-1" d="M1170.77,335.65v4a2.76,2.76,0,0,1-3,3H1136V481.25a2.76,2.76,0,0,1-3,3h-4.65a2.77,2.77,0,0,1-3-3V342.72h-31.85a2.76,2.76,0,0,1-3-3v-4a2.77,2.77,0,0,1,3-3h31.85v-45.5a2.77,2.77,0,0,1,3-3H1133a2.76,2.76,0,0,1,3,3v45.5h31.75A2.77,2.77,0,0,1,1170.77,335.65Z" transform="translate(-86.69 -210.77)"/><path class="cls-1" d="M1224.57,329.37c30.54,0,54.6,19.11,54.6,54.3v97.57a2.77,2.77,0,0,1-3,3h-4.65a2.78,2.78,0,0,1-3-3V464.43c-9.19,16.62-28.42,23.08-50.25,23.08-28.72,0-54.3-16.07-54.3-46.81s25.58-46.81,54.3-46.81c22,0,40.86,7.74,50.25,22.85V383.68c0-29.33-19.42-44.19-43.89-44.19-23.66,0-42.06,12.64-43.68,35.19-.3,1.82-1.31,2.93-3.13,2.93h-4.65a2.75,2.75,0,0,1-3-3.14c1.71-26.59,23.15-45.1,54.5-45.1Zm-4.76,148.24c26.29,0,48.64-10.92,48.64-36.91,0-26.39-23.36-36.9-48.63-36.9-28.42,0-45.2,15-45.2,36.9s16.78,36.9,45.2,36.9Z" transform="translate(-86.69 -210.77)"/><path class="cls-2" d="M613.19,210.77v37.34h0A136.28,136.28,0,0,1,749.47,384.39c0,75.26-61,135.76-136.28,135.76h0V558a173.62,173.62,0,0,0,0-347.23Z" transform="translate(-86.69 -210.77)"/><path class="cls-2" d="M613.19,255.94A128.09,128.09,0,1,0,741.27,384,128.08,128.08,0,0,0,613.19,255.94Zm0,233.25A105.17,105.17,0,1,1,718.35,384,105.16,105.16,0,0,1,613.19,489.19Z" transform="translate(-86.69 -210.77)"/><path class="cls-1" d="M613.19,278.86A105.17,105.17,0,1,0,718.35,384,105.16,105.16,0,0,0,613.19,278.86Zm49,174.28c0,3.33-1.87,5.19-5.19,5.19H568.6c-3.33,0-5.19-1.86-5.19-5.19V438a8.67,8.67,0,0,1,2.69-6.44l45.68-46.08c8.09-8.31,15.15-18.48,15.15-27.61,0-9.76-5-15.36-14.32-15.36-8.72,0-13.91,3.52-15.57,11.2-.63,3.33-2.29,5-5.4,5h-23c-3.33,0-5.19-1.87-5-5.4,2.49-30.1,25.12-43.18,48.17-43.18,24.28,0,48.37,14.53,48.37,47.75,0,16-9.76,32.59-21.59,44.22l-25.12,24.28H657c3.32,0,5.19,1.87,5.19,5.19Z" transform="translate(-86.69 -210.77)"/><path class="cls-2" d="M698.67,247.9H93A5.92,5.92,0,0,1,87.1,242h0A5.92,5.92,0,0,1,93,236.06H698.67Z" transform="translate(-86.69 -210.77)"/><path class="cls-1" d="M280,136" transform="translate(-86.69 -210.77)"/><path class="cls-1" d="M613.19,247.74A136.28,136.28,0,1,0,749.47,384,136.28,136.28,0,0,0,613.19,247.74Zm0,264.37A128.09,128.09,0,1,1,741.27,384,128.09,128.09,0,0,1,613.19,512.11Z" transform="translate(-86.69 -210.77)"/><path class="cls-2" d="M619.1,520.15V532h655a5.92,5.92,0,0,0,5.92-5.92h0a5.92,5.92,0,0,0-5.92-5.92h-655" transform="translate(-86.69 -210.77)"/></g></svg>